<?xml version="1.0" encoding="utf-8"?>
<!-- Generator: Adobe Illustrator 16.0.0, SVG Export Plug-In . SVG Version: 6.00 Build 0)  -->
<!DOCTYPE svg PUBLIC "-//W3C//DTD SVG 1.1//EN" "http://www.w3.org/Graphics/SVG/1.1/DTD/svg11.dtd">
<svg version="1.1" id="Layer_5" xmlns="http://www.w3.org/2000/svg" xmlns:xlink="http://www.w3.org/1999/xlink" x="0px" y="0px"
	 width="512px" height="512px" viewBox="0 0 512 512" enable-background="new 0 0 512 512" xml:space="preserve">
<path fill="#C1272D" d="M502.586,255.322c0-25.236-7.55-49.437-22.445-71.932c-13.373-20.195-32.108-38.072-55.687-53.132
	C378.938,101.182,319.108,85.168,256,85.168c-21.079,0-41.855,1.781-62.009,5.31c-12.504-11.702-27.139-22.232-42.627-30.56
	C68.618,19.818,0,58.975,0,58.975s63.798,52.409,53.424,98.35c-28.542,28.313-44.01,62.453-44.01,97.998
	c0,0.113,0.006,0.226,0.006,0.34c0,0.113-0.006,0.226-0.006,0.339c0,35.545,15.469,69.686,44.01,97.999
	C63.798,399.94,0,452.35,0,452.35s68.618,39.156,151.363-0.942c15.488-8.327,30.124-18.857,42.627-30.561
	c20.154,3.528,40.931,5.311,62.009,5.311c63.108,0,122.937-16.015,168.454-45.091c23.577-15.061,42.312-32.938,55.687-53.133
	c14.896-22.496,22.445-46.694,22.445-71.932c0-0.113-0.006-0.226-0.006-0.339C502.58,255.548,502.586,255.436,502.586,255.322z"/>
<path fill="#FFFFFF" d="M256,120.847c116.854,0,211.586,60.509,211.586,135.154c0,74.642-94.73,135.155-211.586,135.155
	c-26.019,0-50.937-3.01-73.959-8.495c-23.396,28.146-74.868,67.28-124.869,54.629c16.265-17.47,40.361-46.988,35.201-95.603
	c-29.968-23.322-47.959-53.164-47.959-85.687C44.414,181.356,139.145,120.847,256,120.847"/>
<g>
	<path fill="#CCCCCC" d="M256,373.373c-26.019,0-50.937-2.607-73.959-7.362c-20.659,21.54-63.209,50.496-107.307,49.431
		c-5.806,8.805-12.121,16.006-17.562,21.85c50,12.651,101.473-26.481,124.869-54.629c23.023,5.486,47.941,8.495,73.959,8.495
		c115.917,0,210.048-59.55,211.551-133.364C466.048,321.766,371.917,373.373,256,373.373z"/>
</g>
<text transform="matrix(1 0 0 1 101.5 294.5)" fill="#C1272D" font-family="'JCHEadA'" font-size="120">ㄱㅈㅇ</text>
</svg>
