<?xml version="1.0" encoding="utf-8"?>
<!-- Generator: Adobe Illustrator 16.0.0, SVG Export Plug-In . SVG Version: 6.00 Build 0)  -->
<!DOCTYPE svg PUBLIC "-//W3C//DTD SVG 1.1//EN" "http://www.w3.org/Graphics/SVG/1.1/DTD/svg11.dtd">
<svg version="1.1" id="Layer_1" xmlns="http://www.w3.org/2000/svg" xmlns:xlink="http://www.w3.org/1999/xlink" x="0px" y="0px"
	 width="123px" height="24px" viewBox="0 0 123 24" enable-background="new 0 0 123 24" xml:space="preserve">
<g>
	<path fill="#C1272D" d="M28,11.98c0-1.416-0.42-2.773-1.25-4.036c-0.746-1.133-1.79-2.137-3.103-2.982
		c-2.536-1.632-5.869-2.531-9.385-2.531c-1.174,0-2.332,0.1-3.454,0.298c-0.715-0.671-1.513-1.248-2.375-1.715
		C3.823-1.236,0,0.961,0,0.961s3.554,2.942,2.976,5.52C1.386,8.07,0.524,9.986,0.524,11.98v0.038c0,1.996,0.862,3.912,2.452,5.5
		C3.554,20.098,0,23.039,0,23.039s3.823,2.197,8.433-0.053c0.862-0.468,1.66-1.045,2.375-1.715c1.123,0.197,2.28,0.297,3.454,0.297
		c3.516,0,6.85-0.898,9.385-2.529c1.314-0.846,2.357-1.85,3.103-2.982c0.83-1.263,1.25-2.621,1.25-4.038V12V11.98z"/>
	<path fill="#FFFFFF" d="M14,4c6.627,0,12,3.416,12,7.629s-5.373,7.629-12,7.629c-1.412,0.004-2.82-0.158-4.195-0.48
		c-1.327,1.59-4.246,3.799-7.081,3.084c0.922-0.985,2.288-2.651,1.996-5.396c-1.7-1.316-2.72-3-2.72-4.836C2,7.415,7.373,4,14,4"/>
	<g transform="translate(7 11)">
		<ellipse fill="#C1272D" cx="7.615" cy="1.368" rx="1.615" ry="1.368"/>
		<ellipse fill="#C1272D" cx="12.615" cy="1.368" rx="1.615" ry="1.368"/>
		<ellipse fill="#C1272D" cx="1.614" cy="1.368" rx="1.614" ry="1.368"/>
	</g>
	<path fill="#CCCCCC" d="M14.144,18.354c-1.459,0-2.855-0.145-4.146-0.405c-1.157,1.184-3.542,2.774-6.014,2.717
		c-0.325,0.483-0.68,0.88-0.984,1.2c2.802,0.695,5.687-1.455,6.998-3.002c1.359,0.313,2.75,0.47,4.146,0.467
		C20.64,19.33,25.916,16.057,26,12C25.916,15.516,20.64,18.354,14.144,18.354z"/>
	<text transform="matrix(1 0 0 1 32 19)" fill="#1F2329" font-family="'JCHEadA'" font-size="22">GAZUATALK</text>
</g>
</svg>
