<?xml version="1.0" encoding="utf-8"?>
<!-- Generator: Adobe Illustrator 16.0.0, SVG Export Plug-In . SVG Version: 6.00 Build 0)  -->
<!DOCTYPE svg PUBLIC "-//W3C//DTD SVG 1.1//EN" "http://www.w3.org/Graphics/SVG/1.1/DTD/svg11.dtd">
<svg version="1.1" id="Layer_1" xmlns="http://www.w3.org/2000/svg" xmlns:xlink="http://www.w3.org/1999/xlink" x="0px" y="0px"
	 width="435.721px" height="85.242px" viewBox="0 0 435.721 85.242" enable-background="new 0 0 435.721 85.242"
	 xml:space="preserve">
<path fill="#C1272D" d="M100.184,41.554c0-5.031-1.505-9.854-4.474-14.339c-2.666-4.025-6.401-7.588-11.1-10.591
	c-9.074-5.796-21-8.989-33.579-8.989c-4.202,0-8.344,0.355-12.361,1.059c-2.492-2.333-5.41-4.432-8.497-6.091
	C13.679-5.392,0,2.415,0,2.415s12.717,10.447,10.649,19.604c-5.689,5.644-8.773,12.45-8.773,19.535c0,0.022,0.001,0.045,0.001,0.067
	s-0.001,0.045-0.001,0.068c0,7.085,3.083,13.891,8.773,19.534C12.718,70.382,0,80.828,0,80.828s13.678,7.806,30.172-0.188
	c3.087-1.659,6.004-3.759,8.497-6.091c4.018,0.702,8.159,1.058,12.361,1.058c12.58,0,24.505-3.191,33.579-8.986
	c4.699-3.004,8.434-6.565,11.1-10.592c2.969-4.484,4.474-9.31,4.474-14.339c0-0.022-0.001-0.045-0.001-0.067
	C100.183,41.6,100.184,41.576,100.184,41.554z"/>
<path fill="#FFFFFF" d="M51.031,14.748c23.293,0,42.177,12.062,42.177,26.941c0,14.878-18.884,26.941-42.177,26.941
	c-5.187,0-10.154-0.601-14.743-1.693c-4.664,5.61-14.924,13.411-24.891,10.89c3.242-3.481,8.045-9.365,7.017-19.058
	c-5.974-4.647-9.56-10.597-9.56-17.08C8.853,26.809,27.737,14.748,51.031,14.748"/>
<g>
	<g>
		<circle fill="#C1272D" cx="51.031" cy="42.555" r="5.603"/>
	</g>
	<g>
		<circle fill="#C1272D" cx="70.511" cy="42.555" r="5.603"/>
	</g>
	<g>
		<circle fill="#C1272D" cx="31.55" cy="42.556" r="5.602"/>
	</g>
</g>
<g>
	<path fill="#CCCCCC" d="M51.031,65.084c-5.187,0-10.154-0.52-14.743-1.467c-4.118,4.293-12.6,10.065-21.39,9.854
		c-1.158,1.755-2.417,3.189-3.501,4.355c9.967,2.521,20.227-5.279,24.891-10.891c4.589,1.094,9.557,1.693,14.743,1.693
		c23.106,0,41.87-11.871,42.169-26.586C92.901,54.798,74.137,65.084,51.031,65.084z"/>
</g>
<text transform="matrix(1 0 0 1 124.3604 65.1211)" fill="#04436A" font-family="'JCHEadA'" font-size="72">GAZUATALK</text>
</svg>
