<?xml version="1.0" encoding="utf-8"?>
<!-- Generator: Adobe Illustrator 16.0.0, SVG Export Plug-In . SVG Version: 6.00 Build 0)  -->
<!DOCTYPE svg PUBLIC "-//W3C//DTD SVG 1.1//EN" "http://www.w3.org/Graphics/SVG/1.1/DTD/svg11.dtd">
<svg version="1.1" id="Layer_1" xmlns="http://www.w3.org/2000/svg" xmlns:xlink="http://www.w3.org/1999/xlink" x="0px" y="0px"
	 width="435.721px" height="85.242px" viewBox="0 0 435.721 85.242" enable-background="new 0 0 435.721 85.242"
	 xml:space="preserve">
<g>
	<text transform="matrix(1 0 0 1 137 66.3867)" fill="#F4F4F4" font-family="'JCHEadA'" font-size="72">GAZUATALK</text>
</g>
<path fill="#C1272D" d="M113.586,42.554c0-5.031-1.505-9.854-4.474-14.339c-2.666-4.025-6.401-7.588-11.1-10.591
	c-9.074-5.796-21-8.989-33.579-8.989c-4.202,0-8.344,0.355-12.361,1.059c-2.492-2.333-5.41-4.432-8.497-6.091
	C27.081-4.392,13.403,3.415,13.403,3.415S26.12,13.862,24.052,23.019c-5.689,5.644-8.773,12.45-8.773,19.535
	c0,0.022,0.001,0.045,0.001,0.067s-0.001,0.045-0.001,0.068c0,7.085,3.083,13.891,8.773,19.534
	c2.068,9.158-10.649,19.604-10.649,19.604s13.678,7.806,30.172-0.188c3.087-1.659,6.004-3.759,8.497-6.091
	c4.018,0.701,8.159,1.058,12.361,1.058c12.58,0,24.505-3.19,33.579-8.985c4.699-3.004,8.434-6.565,11.1-10.592
	c2.969-4.484,4.474-9.31,4.474-14.339c0-0.022-0.001-0.045-0.001-0.067C113.585,42.6,113.586,42.576,113.586,42.554z"/>
<path fill="#FFFFFF" d="M64.433,15.748c23.293,0,42.177,12.062,42.177,26.941c0,14.878-18.884,26.941-42.177,26.941
	c-5.187,0-10.154-0.601-14.743-1.693c-4.664,5.61-14.924,13.411-24.891,10.89c3.242-3.48,8.045-9.365,7.017-19.058
	c-5.974-4.647-9.56-10.597-9.56-17.08C22.255,27.809,41.139,15.748,64.433,15.748"/>
<g>
	<path fill="#CCCCCC" d="M64.433,66.084c-5.187,0-10.154-0.521-14.743-1.467c-4.118,4.293-12.6,10.064-21.39,9.854
		c-1.158,1.755-2.417,3.189-3.501,4.355c9.967,2.521,20.227-5.279,24.891-10.892c4.589,1.095,9.557,1.692,14.743,1.692
		c23.106,0,41.87-11.87,42.169-26.584C106.303,55.798,87.539,66.084,64.433,66.084z"/>
</g>
<text transform="matrix(1 0 0 1 34.3604 49.5303)" fill="#C1272D" font-family="'JCHEadA'" font-size="24">ㄱㅈㅇ</text>
</svg>
